<svg width="24" height="24" viewBox="0 0 24 24" fill="none" xmlns="http://www.w3.org/2000/svg">
<g clip-path="url(#clip0_414_2)">
<path fill-rule="evenodd" clip-rule="evenodd" d="M13.0756 0.454503C12.9356 0.311086 12.7683 0.19712 12.5836 0.119308C12.3989 0.0414965 12.2005 0.00141144 12.0001 0.00141144C11.7996 0.00141144 11.6012 0.0414965 11.4165 0.119308C11.2318 0.19712 11.0646 0.311086 10.9246 0.454503L9.96456 1.4385C9.77587 1.63203 9.53849 1.77109 9.27741 1.84104C9.01634 1.911 8.74123 1.90926 8.48106 1.836L7.15956 1.4625C6.96639 1.40807 6.76428 1.39287 6.56515 1.41781C6.36601 1.44274 6.17389 1.5073 6.00011 1.60768C5.82633 1.70807 5.67442 1.84223 5.55332 2.00227C5.43223 2.16231 5.34441 2.34498 5.29506 2.5395L4.95606 3.87C4.88971 4.13209 4.75376 4.37137 4.56259 4.56254C4.37142 4.75371 4.13214 4.88965 3.87006 4.956L2.53956 5.295C1.72056 5.5035 1.23456 6.345 1.46256 7.1595L1.83606 8.481C1.98606 9.012 1.83306 9.5805 1.43856 9.966L0.454556 10.9245C0.31114 11.0645 0.197173 11.2318 0.119362 11.4165C0.0415499 11.6012 0.00146484 11.7996 0.00146484 12C0.00146484 12.2004 0.0415499 12.3988 0.119362 12.5835C0.197173 12.7682 0.31114 12.9355 0.454556 13.0755L1.43856 14.0355C1.83306 14.4195 1.98456 14.988 1.83606 15.519L1.46256 16.8405C1.40812 17.0337 1.39292 17.2358 1.41786 17.4349C1.44279 17.634 1.50736 17.8262 1.60774 17.9999C1.70812 18.1737 1.84229 18.3256 2.00232 18.4467C2.16236 18.5678 2.34503 18.6556 2.53956 18.705L3.87006 19.044C4.13214 19.1104 4.37142 19.2463 4.56259 19.4375C4.75376 19.6286 4.88971 19.8679 4.95606 20.13L5.29506 21.4605C5.50356 22.2795 6.34506 22.7655 7.15956 22.5375L8.48106 22.164C9.01206 22.014 9.58056 22.167 9.96606 22.5615L10.9246 23.5455C11.0646 23.6889 11.2318 23.8029 11.4165 23.8807C11.6012 23.9585 11.7996 23.9986 12.0001 23.9986C12.2005 23.9986 12.3989 23.9585 12.5836 23.8807C12.7683 23.8029 12.9356 23.6889 13.0756 23.5455L14.0356 22.5615C14.4196 22.167 14.9881 22.0155 15.5191 22.164L16.8406 22.5375C17.0337 22.5922 17.2359 22.6075 17.4351 22.5827C17.6343 22.5578 17.8265 22.4933 18.0003 22.3929C18.1742 22.2925 18.3261 22.1582 18.4471 21.9981C18.5682 21.8379 18.6559 21.6551 18.7051 21.4605L19.0441 20.13C19.1104 19.8679 19.2464 19.6286 19.4375 19.4375C19.6287 19.2463 19.868 19.1104 20.1301 19.044L21.4606 18.705C22.2796 18.4965 22.7656 17.655 22.5376 16.8405L22.1641 15.519C22.0141 14.988 22.1671 14.4195 22.5616 14.034L23.5456 13.0755C23.689 12.9355 23.8029 12.7682 23.8808 12.5835C23.9586 12.3988 23.9986 12.2004 23.9986 12C23.9986 11.7996 23.9586 11.6012 23.8808 11.4165C23.8029 11.2318 23.689 11.0645 23.5456 10.9245L22.5616 9.9645C22.368 9.77582 22.229 9.53843 22.159 9.27736C22.0891 9.01628 22.0908 8.74117 22.1641 8.481L22.5376 7.1595C22.592 6.96634 22.6072 6.76423 22.5823 6.56509C22.5573 6.36596 22.4928 6.17384 22.3924 6.00006C22.292 5.82628 22.1578 5.67436 21.9978 5.55327C21.8378 5.43218 21.6551 5.34436 21.4606 5.295L20.1301 4.956C19.8681 4.88936 19.629 4.75331 19.4379 4.56219C19.2467 4.37107 19.1107 4.13194 19.0441 3.87L18.7051 2.5395C18.4966 1.7205 17.6551 1.2345 16.8406 1.4625L15.5191 1.836C14.9881 1.986 14.4196 1.833 14.0341 1.4385L13.0771 0.454503H13.0756ZM10.5001 6H13.5001V18H10.5001V9H9.00006V7.5L10.5001 6Z" fill="#CFCFCF"/>
</g>
<defs>
<clipPath id="clip0_414_2">
<rect width="24" height="24" fill="white"/>
</clipPath>
</defs>
</svg>
